<svg width="138" height="109" viewBox="0 0 138 109" fill="none" xmlns="http://www.w3.org/2000/svg">
<g clip-path="url(#clip0_2151_1983)">
<path d="M12.525 30.4304L12.2056 30.0884V34.9587L12.5491 34.5492L12.525 30.4304Z" fill="#A6192E"/>
<path d="M34.3988 42.0378V64.6572H22.2153L22.5589 64.9992H34.7423V42.3798C34.8477 40.589 34.5814 38.7959 33.96 37.1121C33.3385 35.4284 32.3753 33.8902 31.1303 32.5935C33.4038 35.2033 34.575 38.5876 34.3988 42.0378Z" fill="#A6192E"/>
<path d="M12.2052 45.9514V64.6785H0L0.343536 65.0205H12.5245V46.2693C12.4219 45.5406 12.4783 44.7984 12.69 44.0933C12.9017 43.3883 13.2636 42.737 13.7512 42.1839C14.2387 41.6309 14.8403 41.189 15.515 40.8885C16.1897 40.5881 16.9216 40.436 17.6607 40.4428C18.8139 40.4123 19.9366 40.8147 20.8057 41.5701C20.3664 41.0929 19.8282 40.7165 19.2283 40.467C18.6285 40.2174 17.9813 40.1007 17.3316 40.1249C16.5931 40.1187 15.862 40.2712 15.188 40.572C14.5141 40.8728 13.9134 41.3149 13.4267 41.868C12.9401 42.4211 12.579 43.0722 12.3682 43.7769C12.1574 44.4816 12.1018 45.2233 12.2052 45.9514Z" fill="#A6192E"/>
<path d="M55.1988 39.6699C54.208 39.6697 53.2277 39.8714 52.3183 40.2627C51.4088 40.6539 50.5895 41.2264 49.9106 41.9449C49.2318 42.6634 48.708 43.5126 48.3713 44.4403C48.0347 45.368 47.8923 46.3544 47.9531 47.339V47.4762C47.9408 48.5708 48.1534 49.6563 48.5777 50.6661C49.0021 51.6759 49.6292 52.5887 50.4207 53.3485C49.0321 51.8371 48.2719 49.8569 48.2942 47.8086V47.6714C48.2355 46.6863 48.3797 45.6997 48.7178 44.7721C49.056 43.8446 49.5811 42.9956 50.2608 42.2774C50.9405 41.5592 51.7604 40.9869 52.6703 40.5957C53.5802 40.2044 54.5608 40.0025 55.552 40.0023C57.378 39.9902 59.1382 40.6805 60.4655 41.9292C59.7956 41.2095 58.9823 40.6368 58.0775 40.2478C57.1727 39.8588 56.1964 39.6619 55.2109 39.6699H55.1988Z" fill="#A6192E"/>
<path d="M58.0546 55.213V65.3557C57.1072 65.479 56.1528 65.5401 55.1974 65.5388C50.1245 65.6221 45.2168 63.7433 41.5068 60.2976C43.3558 62.1092 45.5491 63.5354 47.9585 64.4928C50.3678 65.4503 52.9448 65.9197 55.5385 65.8736C56.4939 65.8749 57.4483 65.8137 58.3957 65.6905V55.0925L58.0521 54.7505L58.0546 55.213Z" fill="#A6192E"/>
<path d="M74.4679 47.3389V47.4834C74.452 51.0912 73.3414 54.61 71.2816 57.5783C69.2219 60.5467 66.3092 62.826 62.9255 64.1174L62.582 64.2547L62.9255 64.5967C66.3867 63.3433 69.3788 61.0635 71.4985 58.0647C73.6181 55.066 74.7634 51.4923 74.78 47.8254V47.6881C74.7917 45.3108 74.3168 42.956 73.3842 40.7674C72.4517 38.5788 71.0811 36.6023 69.356 34.9585C70.9834 36.5865 72.2725 38.5178 73.1496 40.6421C74.0267 42.7665 74.4747 45.0421 74.4679 47.3389Z" fill="#A6192E"/>
<path d="M107.496 41.5368C110.827 40.0826 114.419 39.3165 118.056 39.2848C119.976 39.1386 121.881 39.7058 123.405 40.8769C122.649 40.1717 121.75 39.6351 120.769 39.3028C119.788 38.9706 118.747 38.8503 117.715 38.95C114.078 38.9816 110.486 39.7478 107.155 41.202L107.496 41.5368Z" fill="#A6192E"/>
<path d="M120.364 50.0029C121.868 50.0048 123.36 50.2664 124.774 50.776V50.5713C123.264 49.9785 121.653 49.6777 120.03 49.6849C116.51 49.6849 114.466 51.4143 114.466 53.9627V54.1C114.446 54.6235 114.544 55.1447 114.754 55.6253C114.963 56.1059 115.278 56.5337 115.675 56.8771C115.091 56.2016 114.781 55.3331 114.807 54.442V54.283C114.785 51.7323 116.844 50.0029 120.364 50.0029Z" fill="#A6192E"/>
<path d="M133.279 34.1613L133.141 34.0481C134.416 35.524 135.384 37.2376 135.988 39.0892C136.593 40.9408 136.821 42.8936 136.661 44.8339V64.7003H124.594L124.937 65.0423H137.004V45.1518C137.176 43.1633 136.933 41.161 136.292 39.2699C135.651 37.3789 134.625 35.6397 133.279 34.1613Z" fill="#A6192E"/>
<path d="M124.593 61.1062C123.315 62.527 121.74 63.6516 119.979 64.4007C118.217 65.1498 116.312 65.5052 114.398 65.4417C111.236 65.5667 108.145 64.4836 105.759 62.414C106.948 63.5531 108.358 64.4394 109.902 65.0191C111.446 65.5988 113.093 65.8597 114.741 65.7861C116.575 65.8445 118.401 65.5204 120.101 64.8348C121.801 64.1491 123.339 63.1169 124.615 61.8046L124.593 61.1062Z" fill="#A6192E"/>
<path d="M90.2831 49.7957L83.8382 30.4086L83.4946 30.0667L83.6083 30.4086L90.1694 50.1377L90.2831 49.7957Z" fill="#A6192E"/>
<path d="M109.485 30.0667L95.6342 64.7004H84.5249L84.8685 65.0183H95.9753L109.826 30.4062L109.485 30.0667Z" fill="#A6192E"/>
<path d="M22.5814 29.3174C20.5226 29.3595 18.5038 29.8919 16.694 30.8699C14.8842 31.848 13.3358 33.2433 12.1786 34.9391V30.0906H0V64.6568H12.2052V45.9514C12.1028 45.2222 12.1597 44.4797 12.372 43.7744C12.5842 43.0691 12.9469 42.4178 13.4352 41.8649C13.9235 41.312 14.5259 40.8705 15.2013 40.5706C15.8767 40.2707 16.6091 40.1195 17.3486 40.1273C20.3194 40.1273 22.2161 42.1747 22.2161 45.9538V64.6809H34.4213V42.0398C34.3996 34.1876 29.9651 29.3174 22.5814 29.3174Z" fill="#DA291C"/>
<path d="M96.8438 30.0686L90.1691 50.1398L83.4967 30.0686H70.6504L84.5249 64.7024H95.6342L109.485 30.0686H96.8438Z" fill="#DA291C"/>
<path d="M55.3366 29.3849C52.8719 29.2827 50.4115 29.6728 48.1007 30.5323C45.7898 31.3919 43.6752 32.7033 41.8816 34.3894C40.0879 36.0755 38.6515 38.1022 37.657 40.3498C36.6626 42.5974 36.1302 45.0205 36.0913 47.4762V47.6135C36.1278 50.054 36.6557 52.4624 37.644 54.6961C38.6322 56.9297 40.0606 58.9433 41.8445 60.6174C43.6285 62.2916 45.7318 63.5923 48.0298 64.4426C50.3278 65.2928 52.7737 65.6753 55.2229 65.5674C56.1783 65.5687 57.1327 65.5076 58.08 65.3844V54.7864C57.2134 55.1224 56.2908 55.2924 55.3608 55.2874C54.3576 55.269 53.3681 55.0511 52.4507 54.6466C51.5332 54.242 50.7063 53.659 50.0184 52.9317C49.3305 52.2044 48.7955 51.3476 48.445 50.4115C48.0945 49.4755 47.9354 48.4791 47.9772 47.481V47.3437C47.9186 46.3597 48.0623 45.3741 48.3998 44.4473C48.7372 43.5206 49.2612 42.6722 49.9396 41.9542C50.618 41.2361 51.4365 40.6636 52.345 40.2716C53.2535 39.8796 54.2328 39.6765 55.2229 39.6746C56.229 39.6834 57.223 39.8947 58.145 40.2959C59.067 40.6972 59.8979 41.28 60.5877 42.0093C61.2775 42.7386 61.812 43.5993 62.1589 44.5397C62.5058 45.48 62.6581 46.4805 62.6065 47.481V64.2523C66.0677 62.9988 69.0598 60.7191 71.1794 57.7203C73.299 54.7215 74.4443 51.1478 74.4609 47.481V47.3437C74.425 44.9045 73.8981 42.4972 72.9114 40.2643C71.9246 38.0314 70.4981 36.0182 68.7162 34.3438C66.9342 32.6694 64.8331 31.3678 62.537 30.516C60.241 29.6643 57.7967 29.2797 55.3487 29.3849H55.3366Z" fill="#DA291C"/>
<path d="M132.936 33.8244C130.171 31.0713 125.942 29.6141 119.703 29.6141C116.961 29.5895 114.225 29.8641 111.543 30.433L107.188 41.1972C110.511 39.7461 114.095 38.98 117.724 38.9451C122.41 38.9451 124.65 40.9925 124.65 44.5669V45.1353C121.959 44.249 119.143 43.7961 116.309 43.7937C108.148 43.7937 102.71 47.503 102.71 54.6494V54.7867C102.71 61.6826 107.79 65.4594 114.39 65.4594C116.305 65.5251 118.211 65.1709 119.972 64.4216C121.734 63.6724 123.309 62.5465 124.585 61.1238V64.6958H136.652V44.8029C136.832 42.8164 136.595 40.8143 135.955 38.9242C135.315 37.034 134.287 35.2972 132.936 33.8244ZM124.776 52.1661C124.797 52.9463 124.653 53.7221 124.353 54.4431C124.052 55.1641 123.603 55.814 123.034 56.3507C122.465 56.8874 121.788 57.2987 121.049 57.5579C120.31 57.8172 119.524 57.9185 118.742 57.8553C118.205 57.9227 117.658 57.8752 117.14 57.7162C116.622 57.5571 116.144 57.2901 115.738 56.9329C115.331 56.5756 115.006 56.1363 114.783 55.6442C114.56 55.1521 114.445 54.6184 114.446 54.0786V53.9413C114.446 51.393 116.502 49.6636 120.01 49.6636C121.637 49.655 123.25 49.9559 124.764 50.5499L124.776 52.1661Z" fill="#DA291C"/>
<path d="M2.20909 4.23255C2.20909 4.57664 2.26415 4.88633 2.37426 5.16161C2.48437 5.43688 2.68394 5.69151 2.97298 5.9255C3.26202 6.14572 3.66117 6.35218 4.17044 6.54487C4.6797 6.7238 5.33348 6.89585 6.13178 7.06101C7.74215 7.41887 8.92583 7.91437 9.68284 8.5475C10.4536 9.18064 10.839 10.0546 10.839 11.1695C10.839 11.7888 10.7151 12.3532 10.4674 12.8624C10.2196 13.3717 9.87554 13.8052 9.43509 14.1631C9.00842 14.521 8.49227 14.7962 7.88667 14.9889C7.28106 15.1816 6.62039 15.278 5.90468 15.278C4.74852 15.278 3.6887 15.0922 2.72523 14.7205C1.77553 14.3351 0.86712 13.7502 0 12.9656L1.01164 11.7682C1.76865 12.4564 2.53254 12.9725 3.30332 13.3166C4.07409 13.647 4.96185 13.8121 5.96661 13.8121C6.94384 13.8121 7.7215 13.585 8.29958 13.1308C8.89142 12.6766 9.18735 12.0779 9.18735 11.3346C9.18735 10.9905 9.13229 10.6877 9.02218 10.4262C8.91207 10.1509 8.71938 9.90324 8.4441 9.68304C8.16882 9.4628 7.78344 9.26322 7.28794 9.08429C6.80621 8.90536 6.18683 8.73332 5.42982 8.56815C4.604 8.38922 3.8814 8.18276 3.26202 7.94878C2.65642 7.71479 2.15404 7.43264 1.75489 7.1023C1.35574 6.77197 1.05981 6.38659 0.86712 5.94614C0.674427 5.5057 0.57808 4.98268 0.57808 4.37707C0.57808 3.79899 0.695073 3.26908 0.929057 2.78735C1.16304 2.30561 1.49337 1.8927 1.92005 1.54861C2.34673 1.19075 2.84911 0.915466 3.42719 0.722776C4.00527 0.516316 4.63841 0.413086 5.3266 0.413086C6.38641 0.413086 7.30859 0.564486 8.09312 0.867296C8.89142 1.15634 9.6622 1.59678 10.4054 2.18862L9.45574 3.44801C8.78131 2.89746 8.1 2.49831 7.41181 2.25056C6.73739 2.00281 6.02855 1.87894 5.2853 1.87894C4.81733 1.87894 4.39066 1.94087 4.00527 2.06475C3.63365 2.18862 3.3102 2.35379 3.03492 2.56025C2.77341 2.7667 2.56695 3.01445 2.41555 3.30349C2.27791 3.59253 2.20909 3.90222 2.20909 4.23255Z" fill="white"/>
<path d="M23.2676 4.39771L18.7875 15.4225C18.3333 16.5236 17.824 17.3012 17.2597 17.7555C16.7092 18.2097 16.0347 18.4368 15.2364 18.4368C14.796 18.4368 14.3968 18.3886 14.039 18.2922C13.6811 18.2097 13.3233 18.0789 12.9654 17.9L13.5022 16.6406C13.7637 16.7782 14.0183 16.8746 14.2661 16.9296C14.5276 16.9984 14.8304 17.0329 15.1745 17.0329C15.6562 17.0329 16.0623 16.8883 16.3926 16.5993C16.7229 16.3103 17.0464 15.7872 17.363 15.0302L12.5112 4.39771H14.2661L18.1475 13.296L21.5747 4.39771H23.2676Z" fill="white"/>
<path d="M35.4163 15.0714H33.8266V12.9243C33.6063 13.2408 33.3586 13.5436 33.0833 13.8327C32.8218 14.1217 32.5259 14.3763 32.1955 14.5966C31.8652 14.8168 31.4936 14.9888 31.0807 15.1127C30.6815 15.2366 30.2342 15.2985 29.7387 15.2985C29.0918 15.2985 28.4656 15.1746 27.8599 14.9269C27.2543 14.6791 26.7107 14.3213 26.2289 13.8533C25.7472 13.3716 25.3618 12.7866 25.0728 12.0984C24.7837 11.4102 24.6392 10.6257 24.6392 9.74476C24.6392 8.86389 24.7837 8.07935 25.0728 7.39116C25.3618 6.70297 25.7472 6.12489 26.2289 5.65692C26.7107 5.17519 27.2543 4.81045 27.8599 4.5627C28.4656 4.30119 29.0918 4.17043 29.7387 4.17043C30.2342 4.17043 30.6884 4.23237 31.1013 4.35624C31.5142 4.48012 31.8859 4.64528 32.2162 4.85174C32.5465 5.0582 32.8424 5.29906 33.104 5.57434C33.3792 5.84962 33.6201 6.13866 33.8266 6.44146V0H35.4163V15.0714ZM33.8885 9.72416C33.8885 9.10476 33.7784 8.54044 33.5582 8.03118C33.3517 7.52192 33.0627 7.08836 32.691 6.7305C32.3332 6.37264 31.9203 6.09737 31.4523 5.90467C30.9981 5.69821 30.5232 5.59499 30.0277 5.59499C29.5047 5.59499 29.0161 5.69133 28.5619 5.88403C28.1077 6.06296 27.7085 6.33135 27.3645 6.68921C27.0341 7.0333 26.7657 7.46687 26.5593 7.98989C26.3666 8.49915 26.2702 9.07723 26.2702 9.72416C26.2702 10.3573 26.3666 10.9285 26.5593 11.4378C26.7657 11.947 27.041 12.3875 27.3851 12.7591C27.7292 13.117 28.1283 13.3922 28.5825 13.5849C29.0368 13.7776 29.5185 13.874 30.0277 13.874C30.5232 13.874 30.9981 13.7776 31.4523 13.5849C31.9203 13.3785 32.3332 13.0963 32.691 12.7384C33.0627 12.3806 33.3517 11.947 33.5582 11.4378C33.7784 10.9147 33.8885 10.3435 33.8885 9.72416Z" fill="white"/>
<path d="M40.5585 8.96022V15.0713H38.9688V4.39752H40.5585V6.25563C40.9163 5.67755 41.3843 5.18893 41.9624 4.78978C42.5404 4.37687 43.2906 4.17041 44.2128 4.17041C44.8597 4.17041 45.4308 4.27364 45.9263 4.4801C46.4356 4.68656 46.8623 4.98248 47.2064 5.36786C47.5642 5.73949 47.8327 6.18681 48.0117 6.70984C48.2044 7.23286 48.3006 7.81094 48.3006 8.44408V15.0713H46.7109V8.83634C46.7109 7.84535 46.4563 7.06081 45.947 6.48273C45.4377 5.90465 44.7082 5.61561 43.7585 5.61561C43.3043 5.61561 42.8777 5.6982 42.4785 5.86336C42.0931 6.01476 41.7559 6.24187 41.4669 6.54467C41.1778 6.83371 40.9507 7.18469 40.7856 7.5976C40.6342 8.01052 40.5585 8.46472 40.5585 8.96022Z" fill="white"/>
<path d="M52.6407 10.3228C52.6957 10.9009 52.8333 11.417 53.0536 11.8712C53.2738 12.3117 53.556 12.6902 53.9 13.0067C54.2441 13.3095 54.6295 13.5435 55.0562 13.7087C55.4829 13.8601 55.9302 13.9358 56.3982 13.9358C57.1414 13.9358 57.7746 13.7982 58.2976 13.5229C58.8344 13.2476 59.323 12.8829 59.7634 12.4287L60.7544 13.3164C60.2176 13.922 59.6051 14.4106 58.917 14.7823C58.2288 15.1401 57.3754 15.3191 56.3569 15.3191C55.6274 15.3191 54.9392 15.1883 54.2923 14.9268C53.6454 14.6515 53.0811 14.273 52.5994 13.7913C52.1176 13.2958 51.7322 12.7039 51.4432 12.0157C51.1679 11.3276 51.0303 10.5705 51.0303 9.74474C51.0303 8.97398 51.1542 8.25138 51.4019 7.57696C51.6634 6.88877 52.0213 6.29692 52.4755 5.80142C52.9297 5.29216 53.4665 4.89301 54.0859 4.60397C54.719 4.31493 55.4072 4.17041 56.1504 4.17041C56.935 4.17041 57.6369 4.32181 58.2563 4.62462C58.8757 4.91366 59.3987 5.31281 59.8254 5.82207C60.252 6.33133 60.5755 6.93006 60.7957 7.61825C61.0159 8.30644 61.126 9.0428 61.126 9.82734C61.126 9.89614 61.126 9.97184 61.126 10.0544C61.126 10.137 61.1192 10.2265 61.1054 10.3228H52.6407ZM52.6407 9.14603H59.5157C59.4744 8.6643 59.3712 8.20321 59.206 7.76277C59.0546 7.32233 58.8344 6.93694 58.5453 6.60661C58.2701 6.27628 57.926 6.01476 57.513 5.82207C57.1139 5.61561 56.6459 5.51238 56.1091 5.51238C55.6412 5.51238 55.2076 5.60873 54.8085 5.80142C54.4093 5.98035 54.0583 6.23498 53.7555 6.56532C53.4527 6.88188 53.205 7.26039 53.0123 7.70083C52.8196 8.14127 52.6957 8.62301 52.6407 9.14603Z" fill="white"/>
<path d="M73.0675 4.39771L68.5873 15.4225C68.1331 16.5236 67.6239 17.3012 67.0596 17.7555C66.509 18.2097 65.8346 18.4368 65.0363 18.4368C64.5958 18.4368 64.1967 18.3886 63.8388 18.2922C63.481 18.2097 63.1231 18.0789 62.7652 17.9L63.302 16.6406C63.5635 16.7782 63.8182 16.8746 64.0659 16.9296C64.3274 16.9984 64.6302 17.0329 64.9743 17.0329C65.4561 17.0329 65.8621 16.8883 66.1924 16.5993C66.5228 16.3103 66.8462 15.7872 67.1628 15.0302L62.311 4.39771H64.0659L67.9473 13.296L71.3745 4.39771H73.0675Z" fill="white"/>
<path d="M74.8599 4.58336C75.383 4.39066 75.7546 4.15668 75.9748 3.8814C76.195 3.59236 76.2845 3.22762 76.2432 2.78718H75.4999V0.619385H77.3994V2.47749C77.3994 3.31709 77.2135 3.9571 76.8419 4.39755C76.4703 4.82422 75.8922 5.12703 75.1077 5.30596L74.8599 4.58336Z" fill="white"/>
<path d="M87.4279 12.0777C87.4279 12.5869 87.3247 13.0411 87.1182 13.4403C86.9255 13.8257 86.6571 14.156 86.313 14.4313C85.9827 14.7066 85.5836 14.9199 85.1156 15.0713C84.6614 15.209 84.1659 15.2778 83.6291 15.2778C82.8583 15.2778 82.0807 15.1401 81.2961 14.8649C80.5116 14.5758 79.8165 14.1904 79.2109 13.7087L80.0161 12.5732C80.5942 13.0136 81.1929 13.3508 81.8123 13.5848C82.4454 13.8188 83.0786 13.9358 83.7117 13.9358C84.3586 13.9358 84.8885 13.7844 85.3014 13.4816C85.7143 13.1788 85.9208 12.7659 85.9208 12.2428V12.2016C85.9208 11.94 85.8451 11.7129 85.6937 11.5202C85.556 11.3276 85.3633 11.1624 85.1156 11.0248C84.8678 10.8733 84.5788 10.7426 84.2485 10.6325C83.9319 10.5224 83.6016 10.4191 83.2575 10.3228C82.8446 10.1989 82.4248 10.0682 81.9981 9.93051C81.5852 9.77911 81.2067 9.59331 80.8626 9.3731C80.5322 9.15288 80.257 8.87761 80.0367 8.54727C79.8303 8.21694 79.7271 7.80403 79.7271 7.30853V7.26724C79.7271 6.81303 79.8165 6.40012 79.9955 6.0285C80.1744 5.64311 80.4221 5.31966 80.7387 5.05815C81.069 4.78287 81.4544 4.57641 81.8949 4.43878C82.3491 4.28737 82.8377 4.21167 83.3607 4.21167C84.0214 4.21167 84.6889 4.32178 85.3633 4.542C86.0378 4.74846 86.6503 5.03062 87.2008 5.38848L86.4782 6.58593C85.9827 6.26936 85.4597 6.02161 84.9091 5.84269C84.3723 5.64999 83.8424 5.55364 83.3194 5.55364C82.6863 5.55364 82.1839 5.70505 81.8123 6.00785C81.4407 6.29689 81.2548 6.66163 81.2548 7.10207V7.14337C81.2548 7.39111 81.3305 7.61134 81.4819 7.80403C81.6334 7.98296 81.8329 8.14124 82.0807 8.27888C82.3422 8.41652 82.6381 8.54039 82.9684 8.6505C83.2988 8.76061 83.6429 8.87072 84.0007 8.98083C84.4136 9.10471 84.8197 9.24235 85.2188 9.39375C85.6317 9.54511 86.0034 9.73781 86.3337 9.97181C86.664 10.2058 86.9255 10.488 87.1182 10.8183C87.3247 11.1486 87.4279 11.5547 87.4279 12.0364V12.0777Z" fill="white"/>
<path d="M68.9636 108.606L66.0615 106.759L75.6151 92.487C74.4504 92.8855 73.2324 93.0984 72.0039 93.1184C70.6727 93.1419 69.351 92.8871 68.1204 92.3699C66.8898 91.8527 65.7764 91.0841 64.8491 90.1115C63.8866 89.1517 63.1281 88.0008 62.6208 86.7302C62.1136 85.4596 61.8683 84.0963 61.9002 82.7251C61.8724 80.8184 62.3623 78.9409 63.3161 77.2997C64.2927 75.6586 65.6922 74.3211 67.3627 73.4326C69.0735 72.4845 70.9922 71.9927 72.94 72.003C74.8337 71.988 76.6994 72.4688 78.3581 73.3992C79.9966 74.3076 81.353 75.6644 82.2737 77.3164C83.2019 78.9436 83.6866 80.7935 83.6779 82.6751C83.662 84.2254 83.3678 85.7597 82.8097 87.2022C81.9936 89.2145 80.9422 91.1193 79.6781 92.8754L68.9636 108.606ZM72.8277 90.0567C73.8041 90.0781 74.7747 89.8993 75.6818 89.5309C76.5889 89.1625 77.4139 88.612 78.1077 87.9122C78.8043 87.2511 79.3574 86.4489 79.7314 85.5573C80.1055 84.6656 80.2923 83.7041 80.2797 82.7346C80.2936 81.765 80.1074 80.8031 79.7333 79.9112C79.3592 79.0194 78.8053 78.2174 78.1077 77.557C76.6856 76.185 74.8009 75.4203 72.8417 75.4203C70.8825 75.4203 68.9978 76.185 67.5757 77.557C66.878 78.2174 66.3243 79.0194 65.9502 79.9112C65.5761 80.8031 65.3899 81.765 65.4038 82.7346C65.3899 83.7043 65.5761 84.6662 65.9502 85.5581C66.3243 86.4499 66.878 87.2519 67.5757 87.9122C68.2675 88.608 69.0889 89.1561 69.9916 89.5244C70.8942 89.8926 71.8601 90.0736 72.8324 90.0567H72.8277Z" fill="white"/>
<path d="M98.5438 72L101.446 73.868L91.8923 88.1404C93.0549 87.7309 94.2737 87.5105 95.5037 87.4875C96.834 87.4627 98.155 87.7156 99.3856 88.2308C100.616 88.7459 101.73 89.5123 102.658 90.4826C103.621 91.4423 104.379 92.5932 104.887 93.8639C105.394 95.1345 105.639 96.4977 105.607 97.8689C105.646 99.7875 105.154 101.678 104.188 103.326C103.222 104.974 101.821 106.313 100.145 107.19C98.4195 108.138 96.4881 108.629 94.5277 108.619C92.6342 108.632 90.769 108.152 89.1096 107.223C87.4737 106.323 86.1192 104.973 85.201 103.327C84.2657 101.695 83.7761 99.8376 83.7828 97.9476C83.8031 96.4132 84.0973 94.8953 84.651 93.4681C85.4705 91.4527 86.5302 89.5473 87.806 87.7949L98.5438 72ZM94.6587 90.5493C92.6933 90.5388 90.8011 91.3079 89.3833 92.6937C88.6949 93.3656 88.1472 94.1724 87.7731 95.0655C87.3991 95.9586 87.2064 96.9195 87.2067 97.8904C87.2249 99.5292 87.778 101.115 88.7788 102.399C89.7796 103.682 91.1712 104.591 92.7348 104.981C94.3085 105.404 95.9743 105.299 97.4844 104.68C98.9945 104.062 100.268 102.964 101.116 101.55C101.936 100.154 102.264 98.5158 102.045 96.9048C101.827 95.2937 101.076 93.8066 99.9153 92.689C99.2233 91.9928 98.4017 91.4445 97.4986 91.0762C96.5954 90.7079 95.6292 90.5272 94.6564 90.5445L94.6587 90.5493Z" fill="white"/>
<path d="M111.8 102.532C112.189 102.523 112.576 102.595 112.938 102.742C113.3 102.889 113.629 103.108 113.906 103.387C114.18 103.658 114.397 103.981 114.546 104.339C114.695 104.697 114.771 105.081 114.771 105.47C114.771 105.858 114.695 106.242 114.546 106.6C114.397 106.958 114.18 107.282 113.906 107.552C113.347 108.107 112.596 108.418 111.815 108.418C111.033 108.418 110.283 108.107 109.724 107.552C109.45 107.282 109.232 106.958 109.084 106.6C108.935 106.242 108.858 105.858 108.858 105.47C108.858 105.081 108.935 104.697 109.084 104.339C109.232 103.981 109.45 103.658 109.724 103.387C109.997 103.112 110.321 102.895 110.677 102.748C111.034 102.601 111.415 102.527 111.8 102.532Z" fill="white"/>
<path d="M122.631 108.606L119.726 106.759L129.303 92.4869C128.138 92.8853 126.92 93.0983 125.692 93.1183C124.362 93.1406 123.042 92.8852 121.813 92.3681C120.584 91.8509 119.473 91.0829 118.546 90.1113C117.584 89.1516 116.825 88.0007 116.318 86.7301C115.811 85.4594 115.566 84.0962 115.597 82.725C115.571 80.8181 116.061 78.9406 117.016 77.2996C117.986 75.6617 119.377 74.3246 121.039 73.4325C122.757 72.4804 124.684 71.9884 126.64 72.0028C128.533 71.988 130.399 72.4688 132.058 73.3991C133.695 74.3078 135.051 75.6646 135.971 77.3163C136.904 78.9422 137.393 80.7921 137.389 82.6749C137.374 84.2253 137.079 85.7596 136.521 87.2021C135.707 89.2142 134.658 91.1191 133.396 92.8753L122.631 108.606ZM126.492 90.0565C127.469 90.0781 128.439 89.8994 129.346 89.531C130.254 89.1626 131.079 88.612 131.772 87.9121C132.469 87.251 133.022 86.4488 133.396 85.5571C133.77 84.6655 133.957 83.704 133.944 82.7345C133.958 81.7648 133.772 80.8029 133.398 79.911C133.024 79.0191 132.47 78.2171 131.772 77.5569C130.35 76.1844 128.466 75.4193 126.506 75.4193C124.547 75.4193 122.662 76.1844 121.24 77.5569C120.543 78.2173 119.989 79.0193 119.615 79.9112C119.241 80.803 119.055 81.7649 119.068 82.7345C119.055 83.7042 119.241 84.666 119.615 85.5578C119.989 86.4497 120.543 87.2517 121.24 87.9121C121.932 88.6079 122.753 89.156 123.656 89.5242C124.559 89.8925 125.525 90.0735 126.497 90.0565H126.492Z" fill="white"/>
</g>
<defs>
<clipPath id="clip0_2151_1983">
<rect width="138" height="109" fill="white"/>
</clipPath>
</defs>
</svg>
