<svg width="337" height="138" viewBox="0 0 337 138" fill="none" xmlns="http://www.w3.org/2000/svg">
<g clip-path="url(#clip0_1781_34014)">
<path d="M22.8552 52.0058C22.0808 52.5871 21.2238 53.0288 20.2868 53.3336C19.3472 53.6385 18.3818 53.7909 17.3854 53.7909C15.1758 53.7909 12.9378 53.2923 10.6714 52.2977C8.40499 51.3032 6.55419 49.7274 5.11897 47.5703L0.144775 50.9699C2.24339 54.2869 4.79889 56.6092 7.81129 57.937C10.8237 59.2649 14.0142 59.9288 17.3854 59.9288C19.2078 59.9288 20.9915 59.6653 22.7313 59.1409C24.4711 58.6165 26.0173 57.813 27.3725 56.7358C28.7251 55.656 29.817 54.3179 30.6456 52.7111C31.4742 51.1094 31.8898 49.2288 31.8898 47.0717C31.8898 44.9147 31.4742 43.0909 30.6456 41.5977C29.817 40.1046 28.7535 38.875 27.4551 37.9062C26.1567 36.9401 24.6776 36.178 23.0204 35.6252C21.3632 35.0724 19.706 34.6306 18.0462 34.2974C17.1066 34.132 16.0715 33.9228 14.9383 33.6748C13.8051 33.4268 12.7545 33.0806 11.7891 32.6389C10.8211 32.1972 10.008 31.5901 9.34459 30.8151C8.68119 30.0401 8.35078 29.0197 8.35078 27.7462C8.35078 26.4726 8.64247 25.5219 9.22069 24.7185C9.80148 23.9177 10.5475 23.2667 11.4587 22.7682C12.3699 22.2696 13.3508 21.926 14.4014 21.7323C15.4494 21.5385 16.4458 21.4404 17.3854 21.4404C18.8774 21.4404 20.3978 21.7193 21.944 22.2696C23.4902 22.8224 24.928 23.7911 26.2548 25.1732L30.3152 20.4458C28.547 18.6762 26.5155 17.3768 24.2233 16.5476C21.9285 15.7184 19.6518 15.3025 17.3854 15.3025C15.6172 15.3025 13.8077 15.5375 11.9569 16.0077C10.1061 16.4779 8.43338 17.2115 6.94138 18.2061C5.44938 19.2006 4.21809 20.5026 3.25268 22.1043C2.28469 23.7085 1.80198 25.6434 1.80198 27.9089C1.80198 30.1744 2.25887 32.1274 3.17008 33.5921C4.08128 35.0569 5.25578 36.2607 6.69358 37.1984C8.12879 38.1387 9.74727 38.844 11.5413 39.3141C13.3353 39.7843 15.119 40.1847 16.8872 40.5179C17.8268 40.6833 18.7948 40.9054 19.7886 41.1818C20.7824 41.4583 21.6936 41.8328 22.5222 42.303C23.3508 42.7731 24.0271 43.3802 24.5537 44.1268C25.0777 44.8734 25.341 45.8266 25.341 46.9891C25.341 48.1515 25.119 49.0634 24.6776 49.8927C24.2336 50.7219 23.627 51.4272 22.8552 52.0084V52.0058Z" fill="#005094"/>
<path d="M42.9 29.1489C42.9 27.6532 43.1633 26.3951 43.6899 25.3696C44.2165 24.3466 44.9212 23.5303 45.804 22.9206C46.6894 22.311 47.7142 21.8976 48.8732 21.6755C50.0348 21.4559 51.2248 21.3422 52.4406 21.3422C53.437 21.3422 54.4463 21.4817 55.4685 21.7581C56.4829 22.032 57.3993 22.4298 58.2227 22.9464V22.9619C58.3208 23.0188 58.4112 23.0834 58.5067 23.1428C59.2191 23.6362 59.8309 24.2226 60.3239 24.9123C60.8763 25.6873 61.1525 26.5734 61.1525 27.5705V59.5129H67.7659V27.5705C67.7659 26.5734 68.0421 25.6899 68.5945 24.9149C69.0875 24.2226 69.6993 23.6362 70.4117 23.1428C70.5072 23.0834 70.595 23.0188 70.6931 22.9645V22.949C71.5165 22.4298 72.4329 22.0345 73.4473 21.7607C74.4695 21.4843 75.4788 21.3448 76.4752 21.3448C77.691 21.3448 78.881 21.4559 80.0426 21.6781C81.2042 21.9002 82.2264 22.3135 83.1118 22.9232C83.9946 23.5329 84.7019 24.3492 85.2259 25.3722C85.7525 26.3977 86.0158 27.6558 86.0158 29.1515V59.5155H92.6549V29.6475C92.6549 27.1572 92.2522 25.0131 91.452 23.2125C90.6492 21.4146 89.5289 19.9317 88.0911 18.7693C86.6534 17.6068 84.9497 16.7362 82.9879 16.155C81.0235 15.5737 78.881 15.2818 76.5578 15.2818C74.5676 15.2818 72.4509 15.6848 70.2104 16.4856C67.9749 17.2865 66.057 18.5135 64.4566 20.1694C62.8562 18.5161 60.9383 17.2865 58.7029 16.4856C56.4623 15.6848 54.3456 15.2818 52.3554 15.2818C50.0322 15.2818 47.8897 15.5712 45.9253 16.1524C43.9635 16.7336 42.2624 17.6068 40.8221 18.7667C39.3843 19.9292 38.264 21.412 37.4612 23.2099C36.661 25.0105 36.2583 27.1546 36.2583 29.6449V59.5103H42.8974V29.1489H42.9Z" fill="#005094"/>
<path d="M259.48 29.1489C259.48 27.6532 259.743 26.3951 260.27 25.3696C260.797 24.3466 261.501 23.5303 262.384 22.9206C263.269 22.311 264.294 21.8976 265.453 21.6755C266.615 21.4559 267.805 21.3422 269.021 21.3422C270.017 21.3422 271.026 21.4817 272.049 21.7581C273.063 22.032 273.979 22.4298 274.803 22.9464V22.9619C274.901 23.0188 274.991 23.0834 275.087 23.1428C275.799 23.6362 276.411 24.2226 276.904 24.9123C277.456 25.6873 277.733 26.5734 277.733 27.5705V59.5129H284.346V27.5705C284.346 26.5734 284.622 25.6899 285.175 24.9149C285.668 24.2226 286.279 23.6362 286.992 23.1428C287.087 23.0834 287.175 23.0188 287.273 22.9645V22.949C288.097 22.4298 289.013 22.0345 290.027 21.7607C291.05 21.4843 292.059 21.3448 293.055 21.3448C294.271 21.3448 295.461 21.4559 296.623 21.6781C297.784 21.9002 298.806 22.3135 299.692 22.9232C300.575 23.5329 301.282 24.3492 301.806 25.3722C302.333 26.3977 302.596 27.6558 302.596 29.1515V59.5155H309.235V29.6475C309.235 27.1572 308.832 25.0131 308.032 23.2125C307.229 21.4146 306.109 19.9317 304.671 18.7693C303.233 17.6068 301.53 16.7362 299.568 16.155C297.604 15.5737 295.461 15.2818 293.138 15.2818C291.148 15.2818 289.031 15.6848 286.79 16.4856C284.555 17.2865 282.637 18.5135 281.037 20.1694C279.436 18.5161 277.518 17.2865 275.283 16.4856C273.042 15.6848 270.926 15.2818 268.935 15.2818C266.612 15.2818 264.47 15.5712 262.505 16.1524C260.544 16.7336 258.843 17.6068 257.402 18.7667C255.964 19.9292 254.844 21.412 254.041 23.2099C253.241 25.0105 252.838 27.1546 252.838 29.6449V56.3664C255.143 57.1647 257.363 58.1515 259.478 59.3088V29.1489H259.48Z" fill="#EE7722"/>
<path d="M139.776 56.684C141.323 57.8749 143.091 58.7713 145.081 59.3784C147.071 59.9855 149.113 60.2903 151.214 60.2903C153.315 60.2903 155.277 59.9855 157.265 59.3784C159.255 58.7713 161.023 57.8723 162.569 56.684C164.116 55.4957 165.36 54.0155 166.299 52.2459C167.239 50.4764 167.709 48.3762 167.709 45.9427V29.7016C167.709 27.325 167.239 25.2377 166.299 23.4397C165.36 21.6417 164.116 20.1512 162.569 18.9603C161.023 17.772 159.255 16.873 157.265 16.2659C155.277 15.6588 153.259 15.354 151.214 15.354C149.17 15.354 147.071 15.6588 145.081 16.2659C143.091 16.8756 141.323 17.7745 139.776 18.9603C138.228 20.1512 136.971 21.6443 136.005 23.4397C135.037 25.2377 134.554 27.325 134.554 29.7016V45.9427C134.554 48.3762 135.037 50.4764 136.005 52.2459C136.971 54.0155 138.228 55.4957 139.776 56.684ZM141.103 30.1149C141.103 28.676 141.395 27.4128 141.981 26.3252C142.564 25.2377 143.326 24.3335 144.263 23.6154C145.2 22.8972 146.268 22.3521 147.471 21.9853C148.674 21.6185 149.911 21.4325 151.183 21.4325C152.456 21.4325 153.641 21.6159 154.844 21.9853C156.046 22.3521 157.118 22.8972 158.052 23.6154C158.987 24.3335 159.74 25.2377 160.308 26.3252C160.876 27.4128 161.16 28.676 161.16 30.1149V45.5294C161.16 47.0019 160.876 48.2728 160.308 49.3423C159.74 50.4144 158.987 51.3082 158.052 52.0264C157.115 52.7471 156.046 53.2896 154.844 53.659C153.641 54.0258 152.42 54.2092 151.183 54.2092C149.947 54.2092 148.677 54.0258 147.471 53.659C146.268 53.2922 145.197 52.7471 144.263 52.0264C143.326 51.3082 142.564 50.4118 141.981 49.3423C141.395 48.2728 141.103 47.0019 141.103 45.5294V30.1149V30.1149Z" fill="#005094"/>
<path d="M102.192 56.684C103.738 57.8749 105.506 58.7713 107.497 59.3784C109.487 59.9855 111.529 60.2903 113.63 60.2903C115.731 60.2903 117.693 59.9855 119.68 59.3784C121.671 58.7713 123.439 57.8723 124.985 56.684C126.531 55.4957 127.775 54.0155 128.715 52.2459C129.655 50.4764 130.124 48.3762 130.124 45.9427V29.7016C130.124 27.325 129.655 25.2377 128.715 23.4397C127.775 21.6417 126.531 20.1512 124.985 18.9603C123.439 17.772 121.671 16.873 119.68 16.2659C117.693 15.6588 115.674 15.354 113.63 15.354C111.585 15.354 109.487 15.6588 107.497 16.2659C105.506 16.8756 103.738 17.7745 102.192 18.9603C100.643 20.1512 99.3861 21.6443 98.4207 23.4397C97.4527 25.2377 96.97 27.325 96.97 29.7016V45.9427C96.97 48.3762 97.4527 50.4764 98.4207 52.2459C99.3861 54.0155 100.643 55.4957 102.192 56.684ZM103.519 30.1149C103.519 28.676 103.81 27.4128 104.396 26.3252C104.98 25.2377 105.741 24.3335 106.678 23.6154C107.615 22.8972 108.684 22.3521 109.887 21.9853C111.09 21.6185 112.326 21.4325 113.599 21.4325C114.871 21.4325 116.056 21.6159 117.259 21.9853C118.462 22.3521 119.533 22.8972 120.468 23.6154C121.402 24.3335 122.156 25.2377 122.724 26.3252C123.292 27.4128 123.576 28.676 123.576 30.1149V45.5294C123.576 47.0019 123.292 48.2728 122.724 49.3423C122.156 50.4144 121.402 51.3082 120.468 52.0264C119.531 52.7471 118.462 53.2896 117.259 53.659C116.056 54.0258 114.835 54.2092 113.599 54.2092C112.362 54.2092 111.092 54.0258 109.887 53.659C108.684 53.2922 107.613 52.7471 106.678 52.0264C105.741 51.3082 104.98 50.4118 104.396 49.3423C103.81 48.2728 103.519 47.0019 103.519 45.5294V30.1149V30.1149Z" fill="#005094"/>
<path d="M239.967 54.0157V21.443H248.81V15.3568H239.967V14.8195C239.967 12.3137 240.787 10.3659 242.429 8.97607C244.068 7.58626 246.392 6.88877 249.396 6.88877V0.373718C247.114 0.373718 245.003 0.68113 243.056 1.29337C241.11 1.90561 239.414 2.80976 237.966 4.00582C236.521 5.20447 235.38 6.70536 234.546 8.51366C233.712 10.322 233.294 12.4248 233.294 14.8169V54.3335C235.065 54.1113 236.866 53.9976 238.697 53.9976C239.123 53.9976 239.546 54.0054 239.969 54.0183L239.967 54.0157Z" fill="#EE7722"/>
<path d="M332.567 40.8045C329.808 40.1277 327.022 41.8171 326.346 44.5787C324.759 51.0627 321.689 57.1877 317.454 62.5532C315.337 65.2372 312.939 67.7353 310.332 70.0344C307.725 72.3361 304.916 74.4467 301.95 76.3609C296.013 80.179 289.5 83.2195 282.73 85.5806C282.035 85.8235 281.336 86.056 280.636 86.2833C281.183 88.3473 281.584 90.4708 281.821 92.6433C282.794 92.385 283.762 92.1138 284.73 91.8296C292.043 89.6777 299.186 86.7534 305.915 82.9069C309.281 80.9901 312.534 78.8228 315.618 76.3945C318.703 73.9662 321.609 71.2615 324.25 68.2752C326.896 65.2941 329.289 62.0391 331.305 58.5336C333.323 55.0307 334.981 51.2926 336.227 47.4177L336.243 47.3712C336.279 47.2601 336.31 47.1465 336.338 47.0328C337.015 44.2713 335.327 41.4839 332.567 40.8071V40.8045Z" fill="#EE7722"/>
<path d="M174.28 85.395C159.748 82.773 145.23 79.8384 130.584 77.4256C123.261 76.2192 115.907 75.142 108.514 74.3127C106.665 74.1061 104.815 73.9149 102.964 73.7366C101.105 73.5713 99.2468 73.4112 97.3856 73.2872C93.6634 73.0314 89.936 72.8738 86.206 72.817C82.476 72.7731 78.7434 72.8377 75.016 72.9978C71.2885 73.158 67.5637 73.4292 63.8518 73.8297C60.1398 74.2249 56.4408 74.7338 52.7598 75.3641C49.0789 75.997 45.4212 76.7668 41.7944 77.6555C34.5332 79.4225 27.4061 81.7552 20.5037 84.633C17.0499 86.0667 13.6632 87.6683 10.3488 89.4069C7.0344 91.1454 3.79743 93.0286 0.648219 95.0565C-0.00227282 95.475 -0.19329 96.343 0.222302 96.9966C0.637894 97.6527 1.5078 97.8465 2.16603 97.4306H2.1712C5.25587 95.4647 8.43089 93.6435 11.6782 91.9643C14.9255 90.2852 18.2451 88.7378 21.6317 87.3532C28.4 84.5761 35.3927 82.3313 42.5198 80.6418C46.082 79.7919 49.6726 79.0582 53.2864 78.4563C56.9029 77.8596 60.5373 77.3817 64.1822 77.0148C67.8296 76.6428 71.4873 76.3974 75.1528 76.2605C78.8157 76.121 82.4837 76.0952 86.1518 76.1649C89.8172 76.2502 93.4827 76.4336 97.1378 76.7152C98.968 76.8469 100.79 77.0355 102.615 77.2189C104.443 77.4178 106.271 77.6297 108.096 77.857C115.395 78.7741 122.672 79.934 129.933 81.2282C144.456 83.8166 158.911 86.9321 173.467 89.753C180.767 91.1661 188.098 92.512 195.471 93.6771C195.607 92.0909 195.827 90.5306 196.129 88.9987C188.837 87.9422 181.555 86.7048 174.283 85.3924L174.28 85.395Z" fill="#EE7722"/>
<path d="M228.935 29.645C228.935 27.1573 228.491 25.0002 227.609 23.1764C226.723 21.3526 225.564 19.8595 224.126 18.697C222.689 17.5345 221.006 16.6794 219.072 16.1266C217.304 15.628 215.507 15.38 213.685 15.38H213.104C211.447 15.38 209.718 15.5738 207.924 15.9613C206.127 16.3488 204.346 16.9843 202.578 17.8703V0.373718H195.946V53.9615L187.252 53.9692C186.424 53.9692 185.649 53.8194 184.932 53.5998C183.605 53.2665 182.459 52.7008 181.491 51.9C180.525 51.0992 179.792 50.1304 179.294 48.9964C178.796 47.8649 178.548 46.6895 178.548 45.4702V21.5334H191.617V15.3955H178.548V0.373718H172.002V45.4702C172.002 47.6841 172.374 49.6603 173.12 51.4014C173.866 53.1426 174.901 54.6228 176.228 55.8395C177.554 57.0562 179.142 57.9836 180.993 58.6191C182.843 59.2546 184.625 59.5724 187.002 59.5724H202.552V59.5336H202.578V23.6724C204.511 22.8432 206.225 22.2774 207.717 21.9726C209.209 21.6703 210.809 21.5154 212.523 21.5154C213.739 21.5154 214.94 21.6807 216.13 22.0139C217.317 22.3472 218.368 22.8432 219.279 23.5071C220.19 24.171 220.936 25.0002 221.517 25.9948C222.098 26.9893 222.387 28.1802 222.387 29.5623V57.1828C224.493 56.3252 226.679 55.6251 228.935 55.1033V29.645V29.645Z" fill="#005094"/>
<path d="M238.695 136.291C260.146 136.291 277.536 118.888 277.536 97.4201C277.536 75.9523 260.146 58.5493 238.695 58.5493C217.243 58.5493 199.854 75.9523 199.854 97.4201C199.854 118.888 217.243 136.291 238.695 136.291Z" fill="url(#paint0_radial_1781_34014)"/>
<path d="M208.539 93.1474C208.573 92.8968 208.601 92.6462 208.637 92.3956C208.854 90.9128 209.435 89.5824 210.375 88.4199C211.655 86.8338 213.299 85.8005 215.282 85.3484C217.989 84.731 220.54 85.1418 222.842 86.7279C224.641 87.9653 225.767 89.6883 226.242 91.8221C226.683 93.8164 226.441 95.741 225.589 97.5932C224.943 98.9985 224.094 100.28 223.196 101.53C221.296 104.178 219.391 106.823 217.483 109.466C217.445 109.52 217.362 109.572 217.298 109.572C215.757 109.577 214.216 109.577 212.677 109.577C212.651 109.577 212.625 109.572 212.574 109.567C214.425 106.991 216.262 104.434 218.098 101.879C217.659 101.905 217.233 101.951 216.807 101.946C214.786 101.923 212.976 101.295 211.448 99.9543C209.912 98.6059 208.944 96.9267 208.635 94.8911C208.599 94.6483 208.57 94.4029 208.537 94.1574V93.1396L208.539 93.1474ZM217.478 98.5025C220.305 98.5025 222.416 96.4126 222.422 93.6046C222.427 90.8508 220.292 88.7067 217.543 88.7067C214.76 88.7067 212.602 90.8405 212.602 93.5891C212.602 96.3713 214.714 98.4999 217.478 98.5025Z" fill="white"/>
<path d="M242.166 85.2889V88.9029H231.988V93.8267C232.05 93.8267 232.109 93.8267 232.168 93.8267C233.092 93.8267 234.019 93.8215 234.943 93.8267C236.311 93.837 237.656 94.0049 238.944 94.4906C241.389 95.4128 242.912 97.1385 243.413 99.7192C243.725 101.323 243.632 102.91 243.067 104.452C242.463 106.092 241.378 107.34 239.886 108.234C238.738 108.923 237.488 109.321 236.162 109.479C233.627 109.778 231.211 109.383 228.942 108.19C227.927 107.658 227.021 106.976 226.198 106.18C226.187 106.17 226.177 106.154 226.162 106.131C226.884 105.152 227.607 104.17 228.327 103.196C228.72 103.504 229.089 103.814 229.479 104.095C230.547 104.868 231.709 105.439 233.002 105.72C234.257 105.994 235.506 106.015 236.717 105.529C238.108 104.974 239.076 104.007 239.401 102.512C239.871 100.365 238.792 98.4714 236.719 97.7275C236.092 97.5027 235.441 97.3942 234.778 97.3916C232.602 97.3839 230.429 97.389 228.252 97.3865C228.185 97.3865 228.121 97.3865 228.046 97.3865V85.2786H242.161L242.166 85.2889Z" fill="white"/>
<path d="M264.21 96.6915C264.515 96.8361 264.806 96.9575 265.08 97.1074C266.606 97.9418 267.519 99.2334 267.888 100.92C268.209 102.38 268.085 103.801 267.457 105.165C266.853 106.477 265.891 107.469 264.675 108.226C263.523 108.941 262.261 109.324 260.924 109.486C259.928 109.608 258.929 109.618 257.932 109.512C255.684 109.275 253.658 108.479 251.884 107.061C251.544 106.787 251.218 106.49 250.875 106.193L253.01 103.256C253.312 103.501 253.598 103.744 253.898 103.971C255.021 104.821 256.247 105.459 257.63 105.761C259.029 106.066 260.408 106.027 261.748 105.482C262.672 105.105 263.42 104.511 263.758 103.542C264.197 102.279 264.066 101.086 263.134 100.063C262.594 99.4711 261.884 99.1585 261.115 99.0164C260.583 98.9183 260.039 98.8614 259.497 98.8485C258.412 98.8227 257.331 98.8408 256.247 98.8408H256.061V95.3378C256.12 95.3378 256.18 95.3378 256.236 95.3378C257.181 95.3378 258.126 95.3481 259.071 95.3326C259.791 95.3223 260.496 95.2009 261.146 94.8702C262.114 94.3768 262.633 93.5734 262.757 92.504C262.839 91.791 262.754 91.1038 262.434 90.4606C261.975 89.5332 261.185 89.0268 260.204 88.7995C258.934 88.505 257.703 88.6988 256.5 89.1405C255.284 89.5874 254.197 90.2565 253.211 91.0909C253.183 91.1167 253.152 91.1426 253.121 91.1658C253.113 91.171 253.1 91.1736 253.074 91.1839C252.385 90.2513 251.691 89.3162 250.981 88.3578C251.26 88.1227 251.531 87.8747 251.817 87.6525C253.193 86.5753 254.721 85.8029 256.417 85.3741C257.599 85.0744 258.8 84.9582 260.015 85.0615C261.569 85.1932 263.023 85.6169 264.293 86.5546C265.725 87.6112 266.536 89.0372 266.763 90.8041C266.933 92.1345 266.755 93.4055 266.12 94.5964C265.692 95.3998 265.09 96.0534 264.357 96.5855C264.313 96.6191 264.269 96.6527 264.213 96.694L264.21 96.6915Z" fill="white"/>
<path d="M246.745 109.585C245.431 109.585 244.401 108.536 244.406 107.203C244.409 105.885 245.436 104.863 246.755 104.865C248.077 104.865 249.102 105.898 249.097 107.226C249.091 108.551 248.059 109.587 246.748 109.587L246.745 109.585Z" fill="white"/>
<mask id="mask0_1781_34014" style="mask-type:alpha" maskUnits="userSpaceOnUse" x="212" y="49" width="73" height="120">
<path opacity="0.5" d="M261.694 95.1649C274.397 95.1649 284.694 84.8598 284.694 72.1478C284.694 59.4358 274.397 49.1307 261.694 49.1307C248.992 49.1307 238.695 59.4358 238.695 72.1478C238.695 84.8598 248.992 95.1649 261.694 95.1649Z" fill="url(#paint1_radial_1781_34014)"/>
<path opacity="0.6" d="M238.695 168.401C253.086 168.401 264.753 156.726 264.753 142.323C264.753 127.92 253.086 116.245 238.695 116.245C224.303 116.245 212.636 127.92 212.636 142.323C212.636 156.726 224.303 168.401 238.695 168.401Z" fill="url(#paint2_radial_1781_34014)"/>
</mask>
<g mask="url(#mask0_1781_34014)">
<ellipse cx="238.587" cy="97.2435" rx="37.0737" ry="37.0737" fill="#D9D9D9"/>
</g>
<g opacity="0.5">
<path d="M275.526 99.4762C275.568 98.7581 275.593 98.0373 275.593 97.3088C275.593 76.9138 259.073 60.3807 238.694 60.3807C237.966 60.3807 237.245 60.4066 236.528 60.4479C257.537 61.6104 274.365 78.4508 275.526 99.4762Z" fill="url(#paint3_radial_1781_34014)"/>
</g>
<g opacity="0.33">
<path d="M201.862 95.1416C201.82 95.8598 201.794 96.5805 201.794 97.309C201.794 117.704 218.315 134.237 238.694 134.237C239.422 134.237 240.142 134.211 240.86 134.17C219.851 133.007 203.023 116.167 201.862 95.1416Z" fill="url(#paint4_radial_1781_34014)"/>
</g>
</g>
<defs>
<radialGradient id="paint0_radial_1781_34014" cx="0" cy="0" r="1" gradientUnits="userSpaceOnUse" gradientTransform="translate(256.512 73.0114) rotate(180) scale(75.2836 75.3411)">
<stop stop-color="#5A7AB1"/>
<stop offset="0.59" stop-color="#0054A5"/>
<stop offset="1" stop-color="#003D75"/>
</radialGradient>
<radialGradient id="paint1_radial_1781_34014" cx="0" cy="0" r="1" gradientUnits="userSpaceOnUse" gradientTransform="translate(262.39 72.3381) scale(23.0607 23.0783)">
<stop stop-color="white"/>
<stop offset="0.05" stop-color="white" stop-opacity="0.93"/>
<stop offset="0.32" stop-color="white" stop-opacity="0.6"/>
<stop offset="0.56" stop-color="white" stop-opacity="0.35"/>
<stop offset="0.76" stop-color="white" stop-opacity="0.16"/>
<stop offset="0.91" stop-color="white" stop-opacity="0.04"/>
<stop offset="1" stop-color="white" stop-opacity="0"/>
</radialGradient>
<radialGradient id="paint2_radial_1781_34014" cx="0" cy="0" r="1" gradientUnits="userSpaceOnUse" gradientTransform="translate(239.329 142.702) scale(26.1266 26.1466)">
<stop stop-color="white"/>
<stop offset="0.04" stop-color="white" stop-opacity="0.93"/>
<stop offset="0.2" stop-color="white" stop-opacity="0.69"/>
<stop offset="0.35" stop-color="white" stop-opacity="0.48"/>
<stop offset="0.5" stop-color="white" stop-opacity="0.31"/>
<stop offset="0.64" stop-color="white" stop-opacity="0.17"/>
<stop offset="0.77" stop-color="white" stop-opacity="0.08"/>
<stop offset="0.9" stop-color="white" stop-opacity="0.02"/>
<stop offset="1" stop-color="white" stop-opacity="0"/>
</radialGradient>
<radialGradient id="paint3_radial_1781_34014" cx="0" cy="0" r="1" gradientUnits="userSpaceOnUse" gradientTransform="translate(256.745 80.1378) scale(19.5849 19.5998)">
<stop stop-color="white" stop-opacity="0"/>
<stop offset="0.54" stop-color="white"/>
<stop offset="1" stop-color="white" stop-opacity="0"/>
</radialGradient>
<radialGradient id="paint4_radial_1781_34014" cx="0" cy="0" r="1" gradientUnits="userSpaceOnUse" gradientTransform="translate(220.788 107.776) rotate(180) scale(19.5849 19.5998)">
<stop stop-color="white" stop-opacity="0"/>
<stop offset="0.54" stop-color="white"/>
<stop offset="1" stop-color="white" stop-opacity="0"/>
</radialGradient>
<clipPath id="clip0_1781_34014">
<rect width="336.653" height="137.251" fill="white" transform="translate(0 0.373718)"/>
</clipPath>
</defs>
</svg>
