<svg width="337" height="138" viewBox="0 0 337 138" fill="none" xmlns="http://www.w3.org/2000/svg">
<g clip-path="url(#clip0_1781_34047)">
<path d="M22.8542 52.2566C22.0798 52.8378 21.2228 53.2796 20.2858 53.5844C19.3462 53.8892 18.3808 54.0416 17.3844 54.0416C15.1748 54.0416 12.9368 53.5431 10.6704 52.5485C8.40401 51.5539 6.55321 49.9781 5.118 47.8211L0.143799 51.2207C2.24241 54.5376 4.79791 56.86 7.81031 58.1878C10.8227 59.5156 14.0132 60.1795 17.3844 60.1795C19.2068 60.1795 20.9905 59.916 22.7303 59.3916C24.4701 58.8672 26.0163 58.0638 27.3715 56.9866C28.7241 55.9068 29.816 54.5686 30.6446 52.9618C31.4732 51.3602 31.8888 49.4795 31.8888 47.3225C31.8888 45.1655 31.4732 43.3417 30.6446 41.8485C29.816 40.3554 28.7525 39.1257 27.4541 38.157C26.1557 37.1908 24.6766 36.4288 23.0194 35.876C21.3622 35.3231 19.705 34.8814 18.0452 34.5481C17.1056 34.3828 16.0705 34.1736 14.9373 33.9256C13.8041 33.6776 12.7535 33.3314 11.7881 32.8897C10.8201 32.4479 10.007 31.8409 9.34361 31.0659C8.68021 30.2909 8.3498 29.2705 8.3498 27.9969C8.3498 26.7234 8.64149 25.7727 9.21971 24.9693C9.80051 24.1685 10.5465 23.5175 11.4577 23.0189C12.3689 22.5204 13.3498 22.1768 14.4004 21.983C15.4484 21.7893 16.4448 21.6911 17.3844 21.6911C18.8764 21.6911 20.3968 21.9701 21.943 22.5204C23.4892 23.0732 24.927 24.0419 26.2538 25.424L30.3142 20.6965C28.546 18.927 26.5145 17.6276 24.2223 16.7984C21.9275 15.9691 19.6508 15.5532 17.3844 15.5532C15.6162 15.5532 13.8067 15.7883 11.9559 16.2585C10.1051 16.7286 8.43241 17.4623 6.94041 18.4568C5.4484 19.4514 4.21712 20.7534 3.2517 22.355C2.28371 23.9592 1.801 25.8941 1.801 28.1597C1.801 30.4252 2.2579 32.3782 3.1691 33.8429C4.08031 35.3076 5.25481 36.5114 6.6926 37.4492C8.12781 38.3895 9.7463 39.0947 11.5403 39.5649C13.3343 40.035 15.118 40.4355 16.8862 40.7687C17.8258 40.934 18.7938 41.1562 19.7876 41.4326C20.7814 41.709 21.6926 42.0836 22.5212 42.5537C23.3498 43.0239 24.0261 43.631 24.5527 44.3775C25.0767 45.1241 25.34 46.0774 25.34 47.2398C25.34 48.4023 25.118 49.3142 24.6766 50.1434C24.2326 50.9727 23.626 51.6779 22.8542 52.2592V52.2566Z" fill="#005094"/>
<path d="M42.8983 29.3997C42.8983 27.904 43.1616 26.6459 43.6882 25.6203C44.2148 24.5974 44.9195 23.781 45.8023 23.1714C46.6877 22.5617 47.7125 22.1484 48.8715 21.9262C50.0331 21.7067 51.2231 21.593 52.4389 21.593C53.4353 21.593 54.4446 21.7325 55.4668 22.0089C56.4812 22.2827 57.3976 22.6806 58.221 23.1972V23.2127C58.3191 23.2695 58.4095 23.3341 58.505 23.3935C59.2174 23.8869 59.8292 24.4734 60.3222 25.1631C60.8746 25.9381 61.1508 26.8241 61.1508 27.8213V59.7637H67.7641V27.8213C67.7641 26.8241 68.0404 25.9407 68.5928 25.1657C69.0858 24.4734 69.6976 23.8869 70.41 23.3935C70.5055 23.3341 70.5933 23.2695 70.6914 23.2153V23.1998C71.5148 22.6806 72.4312 22.2853 73.4456 22.0115C74.4678 21.7351 75.4771 21.5956 76.4735 21.5956C77.6893 21.5956 78.8793 21.7067 80.0409 21.9288C81.2025 22.151 82.2247 22.5643 83.1101 23.174C83.9929 23.7836 84.7002 24.5999 85.2242 25.6229C85.7508 26.6485 86.0141 27.9065 86.0141 29.4023V59.7662H92.6532V29.8983C92.6532 27.408 92.2505 25.2638 91.4503 23.4633C90.6475 21.6653 89.5272 20.1825 88.0894 19.02C86.6516 17.8576 84.948 16.987 82.9862 16.4057C81.0218 15.8245 78.8793 15.5326 76.5561 15.5326C74.5659 15.5326 72.4492 15.9356 70.2087 16.7364C67.9732 17.5372 66.0553 18.7643 64.4549 20.4202C62.8545 18.7669 60.9366 17.5372 58.7011 16.7364C56.4606 15.9356 54.3439 15.5326 52.3537 15.5326C50.0305 15.5326 47.888 15.8219 45.9236 16.4032C43.9618 16.9844 42.2607 17.8576 40.8204 19.0174C39.3826 20.1799 38.2623 21.6627 37.4595 23.4607C36.6593 25.2613 36.2566 27.4054 36.2566 29.8957V59.7611H42.8957V29.3997H42.8983Z" fill="#005094"/>
<path d="M259.48 29.3997C259.48 27.904 259.743 26.6459 260.27 25.6203C260.796 24.5974 261.501 23.781 262.384 23.1714C263.269 22.5617 264.294 22.1484 265.453 21.9262C266.614 21.7067 267.804 21.593 269.02 21.593C270.017 21.593 271.026 21.7325 272.048 22.0089C273.063 22.2827 273.979 22.6806 274.802 23.1972V23.2127C274.9 23.2695 274.991 23.3341 275.086 23.3935C275.799 23.8869 276.41 24.4734 276.904 25.1631C277.456 25.9381 277.732 26.8241 277.732 27.8213V59.7637H284.345V27.8213C284.345 26.8241 284.622 25.9407 285.174 25.1657C285.667 24.4734 286.279 23.8869 286.991 23.3935C287.087 23.3341 287.175 23.2695 287.273 23.2153V23.1998C288.096 22.6806 289.012 22.2853 290.027 22.0115C291.049 21.7351 292.058 21.5956 293.055 21.5956C294.271 21.5956 295.461 21.7067 296.622 21.9288C297.784 22.151 298.806 22.5643 299.691 23.174C300.574 23.7836 301.281 24.5999 301.805 25.6229C302.332 26.6485 302.595 27.9065 302.595 29.4023V59.7662H309.235V29.8983C309.235 27.408 308.832 25.2638 308.032 23.4633C307.229 21.6653 306.109 20.1825 304.671 19.02C303.233 17.8576 301.529 16.987 299.567 16.4057C297.603 15.8245 295.461 15.5326 293.137 15.5326C291.147 15.5326 289.031 15.9356 286.79 16.7364C284.555 17.5372 282.637 18.7643 281.036 20.4202C279.436 18.7669 277.518 17.5372 275.282 16.7364C273.042 15.9356 270.925 15.5326 268.935 15.5326C266.612 15.5326 264.469 15.8219 262.505 16.4032C260.543 16.9844 258.842 17.8576 257.402 19.0174C255.964 20.1799 254.844 21.6627 254.041 23.4607C253.241 25.2613 252.838 27.4054 252.838 29.8957V56.6172C255.143 57.4154 257.363 58.4023 259.477 59.5596V29.3997H259.48Z" fill="#EE7722"/>
<path d="M139.775 56.9351C141.321 58.126 143.089 59.0224 145.079 59.6294C147.07 60.2365 149.111 60.5413 151.213 60.5413C153.314 60.5413 155.276 60.2365 157.263 59.6294C159.253 59.0224 161.022 58.1234 162.568 56.9351C164.114 55.7467 165.358 54.2665 166.298 52.497C167.237 50.7274 167.707 48.6272 167.707 46.1937V29.9526C167.707 27.576 167.237 25.4887 166.298 23.6907C165.358 21.8928 164.114 20.4022 162.568 19.2113C161.022 18.023 159.253 17.124 157.263 16.5169C155.276 15.9099 153.257 15.605 151.213 15.605C149.168 15.605 147.07 15.9099 145.079 16.5169C143.089 17.1266 141.321 18.0256 139.775 19.2113C138.226 20.4022 136.969 21.8953 136.003 23.6907C135.035 25.4887 134.553 27.576 134.553 29.9526V46.1937C134.553 48.6272 135.035 50.7274 136.003 52.497C136.969 54.2665 138.226 55.7467 139.775 56.9351ZM141.102 30.3659C141.102 28.927 141.393 27.6638 141.979 26.5763C142.563 25.4887 143.324 24.5845 144.261 23.8664C145.198 23.1482 146.267 22.6032 147.47 22.2363C148.673 21.8695 149.909 21.6835 151.182 21.6835C152.454 21.6835 153.639 21.8669 154.842 22.2363C156.045 22.6032 157.116 23.1482 158.05 23.8664C158.985 24.5845 159.739 25.4887 160.307 26.5763C160.874 27.6638 161.158 28.927 161.158 30.3659V45.7804C161.158 47.2529 160.874 48.5239 160.307 49.5934C159.739 50.6654 158.985 51.5592 158.05 52.2774C157.113 52.9981 156.045 53.5406 154.842 53.91C153.639 54.2769 152.418 54.4603 151.182 54.4603C149.945 54.4603 148.675 54.2769 147.47 53.91C146.267 53.5432 145.196 52.9981 144.261 52.2774C143.324 51.5592 142.563 50.6628 141.979 49.5934C141.393 48.5239 141.102 47.2529 141.102 45.7804V30.3659V30.3659Z" fill="#005094"/>
<path d="M102.191 56.9351C103.737 58.126 105.506 59.0224 107.496 59.6294C109.486 60.2365 111.528 60.5413 113.629 60.5413C115.73 60.5413 117.692 60.2365 119.68 59.6294C121.67 59.0224 123.438 58.1234 124.984 56.9351C126.53 55.7467 127.775 54.2665 128.714 52.497C129.654 50.7274 130.124 48.6272 130.124 46.1937V29.9526C130.124 27.576 129.654 25.4887 128.714 23.6907C127.775 21.8928 126.53 20.4022 124.984 19.2113C123.438 18.023 121.67 17.124 119.68 16.5169C117.692 15.9099 115.673 15.605 113.629 15.605C111.585 15.605 109.486 15.9099 107.496 16.5169C105.506 17.1266 103.737 18.0256 102.191 19.2113C100.642 20.4022 99.3853 21.8953 98.4199 23.6907C97.4519 25.4887 96.9692 27.576 96.9692 29.9526V46.1937C96.9692 48.6272 97.4519 50.7274 98.4199 52.497C99.3853 54.2665 100.642 55.7467 102.191 56.9351ZM103.518 30.3659C103.518 28.927 103.81 27.6638 104.396 26.5763C104.979 25.4887 105.741 24.5845 106.678 23.8664C107.615 23.1482 108.683 22.6032 109.886 22.2363C111.089 21.8695 112.325 21.6835 113.598 21.6835C114.871 21.6835 116.055 21.8669 117.258 22.2363C118.461 22.6032 119.533 23.1482 120.467 23.8664C121.401 24.5845 122.155 25.4887 122.723 26.5763C123.291 27.6638 123.575 28.927 123.575 30.3659V45.7804C123.575 47.2529 123.291 48.5239 122.723 49.5934C122.155 50.6654 121.401 51.5592 120.467 52.2774C119.53 52.9981 118.461 53.5406 117.258 53.91C116.055 54.2769 114.835 54.4603 113.598 54.4603C112.362 54.4603 111.092 54.2769 109.886 53.91C108.683 53.5432 107.612 52.9981 106.678 52.2774C105.741 51.5592 104.979 50.6628 104.396 49.5934C103.81 48.5239 103.518 47.2529 103.518 45.7804V30.3659V30.3659Z" fill="#005094"/>
<path d="M239.965 54.2665V21.6938H248.808V15.6076H239.965V15.0702C239.965 12.5644 240.786 10.6166 242.427 9.22683C244.066 7.83702 246.39 7.13954 249.394 7.13954V0.624481C247.112 0.624481 245.001 0.931893 243.055 1.54413C241.108 2.15637 239.412 3.06052 237.964 4.25659C236.519 5.45523 235.378 6.95612 234.544 8.76442C233.71 10.5727 233.292 12.6755 233.292 15.0676V54.5842C235.063 54.3621 236.865 54.2484 238.695 54.2484C239.121 54.2484 239.544 54.2561 239.967 54.2691L239.965 54.2665Z" fill="#EE7722"/>
<path d="M332.566 41.0557C329.807 40.3789 327.022 42.0684 326.345 44.8299C324.758 51.314 321.689 57.4389 317.453 62.8044C315.336 65.4885 312.938 67.9865 310.331 70.2856C307.724 72.5874 304.915 74.6979 301.949 76.6121C296.012 80.4302 289.499 83.4707 282.729 85.8319C282.034 86.0747 281.335 86.3072 280.635 86.5345C281.182 88.5986 281.583 90.722 281.82 92.8946C282.793 92.6363 283.761 92.365 284.729 92.0808C292.042 89.929 299.185 87.0047 305.914 83.1582C309.28 81.2414 312.533 79.074 315.617 76.6457C318.702 74.2174 321.608 71.5127 324.249 68.5264C326.895 65.5453 329.288 62.2904 331.304 58.7848C333.322 55.2819 334.98 51.5439 336.226 47.6689L336.242 47.6224C336.278 47.5114 336.309 47.3977 336.337 47.284C337.014 44.5225 335.326 41.7351 332.566 41.0583V41.0557Z" fill="#EE7722"/>
<path d="M174.28 85.6456C159.747 83.0235 145.23 80.0889 130.583 77.6761C123.26 76.4697 115.906 75.3925 108.513 74.5632C106.665 74.3566 104.814 74.1654 102.963 73.9872C101.105 73.8218 99.2463 73.6617 97.3852 73.5377C93.6629 73.2819 89.9355 73.1243 86.2055 73.0675C82.4755 73.0236 78.7429 73.0882 75.0155 73.2484C71.288 73.4085 67.5632 73.6798 63.8513 74.0802C60.1393 74.4754 56.4403 74.9843 52.7594 75.6146C49.0784 76.2475 45.4207 77.0174 41.7939 77.906C34.5327 79.673 27.4057 82.0057 20.5032 84.8835C17.0494 86.3172 13.6627 87.9188 10.3483 89.6574C7.03391 91.3959 3.79694 93.2792 0.647731 95.307C-0.0027611 95.7255 -0.193779 96.5935 0.221813 97.2471C0.637405 97.9033 1.50731 98.097 2.16555 97.6811H2.17071C5.25538 95.7152 8.4304 93.894 11.6777 92.2149C14.925 90.5357 18.2446 88.9883 21.6313 87.6037C28.3995 84.8267 35.3923 82.5818 42.5193 80.8923C46.0815 80.0424 49.6721 79.3087 53.2859 78.7068C56.9024 78.1101 60.5369 77.6322 64.1817 77.2654C67.8291 76.8934 71.4868 76.648 75.1523 76.511C78.8152 76.3715 82.4832 76.3457 86.1513 76.4155C89.8167 76.5007 93.4822 76.6841 97.1374 76.9657C98.9675 77.0974 100.79 77.286 102.615 77.4694C104.442 77.6684 106.27 77.8802 108.095 78.1075C115.395 79.0246 122.672 80.1845 129.933 81.4787C144.455 84.0672 158.911 87.1826 173.467 90.0036C180.767 91.4166 188.098 92.7625 195.47 93.9276C195.607 92.3414 195.826 90.7811 196.128 89.2492C188.836 88.1927 181.554 86.9553 174.283 85.643L174.28 85.6456Z" fill="#EE7722"/>
<path d="M228.935 29.8957C228.935 27.408 228.491 25.251 227.608 23.4272C226.723 21.6034 225.564 20.1102 224.126 18.9477C222.688 17.7853 221.005 16.9302 219.072 16.3774C217.304 15.8788 215.507 15.6308 213.685 15.6308H213.104C211.447 15.6308 209.717 15.8246 207.923 16.212C206.126 16.5995 204.345 17.235 202.577 18.1211V0.624481H195.946V54.2122L187.252 54.22C186.423 54.22 185.649 54.0701 184.931 53.8506C183.604 53.5173 182.458 52.9516 181.49 52.1508C180.525 51.3499 179.792 50.3812 179.294 49.2471C178.795 48.1157 178.548 46.9403 178.548 45.721V21.7842H191.617V15.6463H178.548V0.624481H172.001V45.721C172.001 47.9348 172.373 49.911 173.119 51.6522C173.865 53.3933 174.9 54.8735 176.227 56.0903C177.554 57.307 179.141 58.2344 180.992 58.8699C182.843 59.5054 184.624 59.8231 187.001 59.8231H202.551V59.7844H202.577V23.9232C204.511 23.0939 206.225 22.5282 207.717 22.2234C209.209 21.9211 210.809 21.7661 212.523 21.7661C213.739 21.7661 214.939 21.9314 216.129 22.2647C217.316 22.5979 218.367 23.0939 219.278 23.7578C220.189 24.4217 220.935 25.251 221.516 26.2455C222.097 27.2401 222.386 28.431 222.386 29.8131V57.4336C224.493 56.5759 226.679 55.8759 228.935 55.354V29.8957V29.8957Z" fill="#005094"/>
<path d="M238.694 136.542C260.145 136.542 277.535 119.139 277.535 97.6708C277.535 76.2031 260.145 58.8001 238.694 58.8001C217.242 58.8001 199.853 76.2031 199.853 97.6708C199.853 119.139 217.242 136.542 238.694 136.542Z" fill="url(#paint0_radial_1781_34047)"/>
<mask id="mask0_1781_34047" style="mask-type:alpha" maskUnits="userSpaceOnUse" x="212" y="49" width="73" height="120">
<path opacity="0.5" d="M261.694 95.4157C274.397 95.4157 284.694 85.1106 284.694 72.3986C284.694 59.6866 274.397 49.3815 261.694 49.3815C248.992 49.3815 238.695 59.6866 238.695 72.3986C238.695 85.1106 248.992 95.4157 261.694 95.4157Z" fill="url(#paint1_radial_1781_34047)"/>
<path opacity="0.6" d="M238.695 168.652C253.086 168.652 264.753 156.976 264.753 142.574C264.753 128.171 253.086 116.495 238.695 116.495C224.303 116.495 212.636 128.171 212.636 142.574C212.636 156.976 224.303 168.652 238.695 168.652Z" fill="url(#paint2_radial_1781_34047)"/>
</mask>
<g mask="url(#mask0_1781_34047)">
<ellipse cx="239.066" cy="97.1734" rx="37.0737" ry="37.0737" fill="#D9D9D9"/>
</g>
<g opacity="0.5">
<path d="M275.524 99.727C275.566 99.0088 275.592 98.2881 275.592 97.5596C275.592 77.1645 259.071 60.6315 238.692 60.6315C237.964 60.6315 237.243 60.6573 236.526 60.6987C257.535 61.8611 274.363 78.7016 275.524 99.727Z" fill="url(#paint3_radial_1781_34047)"/>
</g>
<g opacity="0.33">
<path d="M201.862 95.3924C201.82 96.1105 201.794 96.8313 201.794 97.5597C201.794 117.955 218.315 134.488 238.694 134.488C239.422 134.488 240.142 134.462 240.86 134.421C219.851 133.258 203.023 116.418 201.862 95.3924Z" fill="url(#paint4_radial_1781_34047)"/>
</g>
</g>
<path d="M212.091 93.0631C212.106 92.9108 212.122 92.7584 212.135 92.6034C212.266 91.1443 212.749 89.8116 213.584 88.6081C214.475 87.322 215.642 86.3535 217.052 85.6821C217.946 85.2585 218.883 84.9899 219.864 84.866C220.57 84.7756 221.275 84.7627 221.977 84.8298C223.795 85.0003 225.448 85.6072 226.879 86.7538C228.426 87.9961 229.418 89.5921 229.854 91.5291C230.061 92.4485 230.115 93.3808 230.035 94.3183C229.939 95.4314 229.601 96.4774 229.131 97.4846C228.619 98.5796 227.987 99.6023 227.289 100.586C226.109 102.252 224.913 103.905 223.723 105.563C222.837 106.795 221.949 108.027 221.063 109.259C221.021 109.318 220.98 109.349 220.9 109.349C219.348 109.346 217.796 109.349 216.246 109.349H216.14C218 106.764 219.846 104.194 221.708 101.609C221.53 101.627 221.378 101.645 221.225 101.661C220.696 101.723 220.164 101.712 219.635 101.661C218.684 101.57 217.775 101.33 216.907 100.93C215.854 100.444 214.958 99.7521 214.193 98.8818C213.385 97.9623 212.793 96.919 212.442 95.7439C212.256 95.1189 212.142 94.481 212.111 93.8302C212.109 93.7708 212.099 93.714 212.091 93.6546V93.058V93.0631ZM216.171 93.324C216.187 96.1287 218.307 98.249 221.073 98.2413C223.87 98.2335 226.094 96.1623 226.024 93.1716C225.959 90.4263 223.785 88.4274 221.122 88.4222C218.333 88.4196 216.158 90.5864 216.174 93.3214L216.171 93.324Z" fill="white"/>
<path d="M252.616 93.8586C252.673 93.8586 252.722 93.8586 252.774 93.8586C253.892 93.8637 255.013 93.8457 256.131 93.8792C257.595 93.9231 259.018 94.1892 260.351 94.8296C262.172 95.7051 263.391 97.0997 263.974 99.0393C264.269 100.018 264.359 101.02 264.313 102.035C264.266 103.078 264.052 104.083 263.623 105.036C262.975 106.482 261.944 107.59 260.594 108.401C259.535 109.037 258.386 109.419 257.169 109.612C256.196 109.767 255.222 109.786 254.241 109.711C252.275 109.556 250.449 108.972 248.781 107.916C248.06 107.461 247.397 106.934 246.785 106.343C246.766 106.327 246.754 106.309 246.733 106.286C247.466 105.292 248.2 104.3 248.931 103.311C249.225 103.549 249.507 103.789 249.801 104.016C250.793 104.775 251.877 105.367 253.081 105.723C253.967 105.986 254.871 106.11 255.793 106.036C257.053 105.935 258.174 105.498 259.07 104.574C259.685 103.941 260.051 103.182 260.17 102.306C260.292 101.405 260.168 100.545 259.739 99.7366C259.284 98.8818 258.582 98.3007 257.704 97.921C256.901 97.5749 256.056 97.4587 255.186 97.4587C253.058 97.4639 250.932 97.4587 248.804 97.4587H248.641V85.2327H262.895V88.8871H252.616V93.8534V93.8586Z" fill="white"/>
<path d="M237.878 109.346H233.779V85.2399H237.878V109.346Z" fill="white"/>
<path d="M242.286 104.333C241 104.333 239.998 105.328 239.995 106.614C239.993 107.913 240.995 108.936 242.278 108.938C243.557 108.938 244.564 107.928 244.569 106.637C244.574 105.343 243.575 104.338 242.286 104.336V104.333Z" fill="white"/>
<defs>
<radialGradient id="paint0_radial_1781_34047" cx="0" cy="0" r="1" gradientUnits="userSpaceOnUse" gradientTransform="translate(256.511 73.2622) rotate(180) scale(75.2836 75.3411)">
<stop stop-color="#5A7AB1"/>
<stop offset="0.59" stop-color="#0054A5"/>
<stop offset="1" stop-color="#003D75"/>
</radialGradient>
<radialGradient id="paint1_radial_1781_34047" cx="0" cy="0" r="1" gradientUnits="userSpaceOnUse" gradientTransform="translate(262.39 72.5889) scale(23.0607 23.0783)">
<stop stop-color="white"/>
<stop offset="0.05" stop-color="white" stop-opacity="0.93"/>
<stop offset="0.32" stop-color="white" stop-opacity="0.6"/>
<stop offset="0.56" stop-color="white" stop-opacity="0.35"/>
<stop offset="0.76" stop-color="white" stop-opacity="0.16"/>
<stop offset="0.91" stop-color="white" stop-opacity="0.04"/>
<stop offset="1" stop-color="white" stop-opacity="0"/>
</radialGradient>
<radialGradient id="paint2_radial_1781_34047" cx="0" cy="0" r="1" gradientUnits="userSpaceOnUse" gradientTransform="translate(239.329 142.953) scale(26.1266 26.1466)">
<stop stop-color="white"/>
<stop offset="0.04" stop-color="white" stop-opacity="0.93"/>
<stop offset="0.2" stop-color="white" stop-opacity="0.69"/>
<stop offset="0.35" stop-color="white" stop-opacity="0.48"/>
<stop offset="0.5" stop-color="white" stop-opacity="0.31"/>
<stop offset="0.64" stop-color="white" stop-opacity="0.17"/>
<stop offset="0.77" stop-color="white" stop-opacity="0.08"/>
<stop offset="0.9" stop-color="white" stop-opacity="0.02"/>
<stop offset="1" stop-color="white" stop-opacity="0"/>
</radialGradient>
<radialGradient id="paint3_radial_1781_34047" cx="0" cy="0" r="1" gradientUnits="userSpaceOnUse" gradientTransform="translate(256.743 80.3886) scale(19.5849 19.5998)">
<stop stop-color="white" stop-opacity="0"/>
<stop offset="0.54" stop-color="white"/>
<stop offset="1" stop-color="white" stop-opacity="0"/>
</radialGradient>
<radialGradient id="paint4_radial_1781_34047" cx="0" cy="0" r="1" gradientUnits="userSpaceOnUse" gradientTransform="translate(220.788 108.026) rotate(180) scale(19.5849 19.5998)">
<stop stop-color="white" stop-opacity="0"/>
<stop offset="0.54" stop-color="white"/>
<stop offset="1" stop-color="white" stop-opacity="0"/>
</radialGradient>
<clipPath id="clip0_1781_34047">
<rect width="336.653" height="137.251" fill="white" transform="translate(0 0.624481)"/>
</clipPath>
</defs>
</svg>
